Patient4_TMGait_0pt3_01_left_21_EMG.mot
version=1
nRows=19
nColumns=33
inDegrees=no
endheader
time	1LAddLong	2LGlutMax	3LGlutMed	4LIliopsoas	5LSemiMemb	6LBicFemLong	7LRecFem	8LVastMed	9LVastLat	10LGasMed	11LTibAnt	12lTibPost	13LPeroneusLong	14LSol	15LExtDigLong	16LFlexDigLong	17RAddLong	18RGlutMax	19RGlutMed	20RIliopsoas	21RSemiMemb	22RBicFemLong	23RRecFem	24RVastMed	25RVastLat	26RGasMed	27RTibAnt	28RTibPost	29RPeroneusLong	30RSol	31RExtDigLong	32RFlexDigLong
41.313	0.000305	0.068817	-0.053711	0.011139	-0.006409	-0.017395	0.024109	0.036926	-0.061798	-0.007019	0.15823	0.020447	-0.007629	-0.034485	0.001678	0.002441	-0.023346	0.15732	0.25314	-0.065155	0.003815	0.032196	-0.049286	0.34698	-0.6041	-0.011749	0.32745	-0.001221	0.080719	0.030975	0.001526	-0.009918
41.314	0.005646	0.066528	-0.072327	0.019989	-0.002594	-0.031586	0.026245	0.009766	-0.070038	-0.018311	0.22766	0.016174	-0.012817	-0.033417	-0.004578	0.014801	-0.005798	0.090027	0.41061	-0.069733	0.001831	0.006866	-0.20218	0.3595	-0.72037	-0.009766	-0.089111	-0.000763	0.1294	-0.003052	0.00351	-0.02243
41.315	0.002289	0.083618	0.031738	0.00885	0.00351	-0.041351	0.027618	0.009003	-0.065613	-0.012817	0.012512	0.009003	-0.009766	0.007935	0.1239	0.007172	0.007782	0.057068	0.17548	-0.07782	-0.012665	-0.05722	-0.26047	0.41534	-0.73196	-0.001373	-0.20096	-0.005646	-0.005798	-0.050201	0.006714	-0.012817
41.316	0.001221	0.06424	0.032806	0.013733	0.020142	-0.033722	0.045319	0.003662	-0.068817	-0.005035	-0.24307	-0.00061	-0.000153	0.053253	0.10895	0.010986	0	0.17685	-0.21637	-0.064545	-0.024261	-0.054016	-0.33127	0.3865	-0.65979	0.008087	-0.066528	-0.002594	-0.29999	-0.11581	0.001831	-0.011902
41.317	0.001068	0.068207	-0.025482	0.017242	0.012512	0.006866	0.019226	0.002899	-0.057678	-0.00473	-0.15823	-0.004883	0.005493	0.027618	0.14358	0.010071	0.032654	0.10681	-0.69687	0.003204	-0.050659	-0.061646	-0.22339	0.21851	-0.49713	-0.00061	-0.18356	-0.003967	-0.19516	-0.11948	-0.000305	-0.011444
41.318	-0.00061	0.053864	0.072174	-0.018158	0.005951	-0.033112	0.04303	-0.003357	-0.055542	-0.019073	-0.052795	0.032196	0.000458	-0.023499	-0.020599	0.010834	0.036621	0.13199	-0.57953	0.036316	-0.043945	-0.085754	-0.17441	-0.027161	-0.35324	-0.003052	-0.10071	-0.007324	-0.42419	-0.066681	0.002899	-0.009308
41.319	0.008392	0.022125	0.054779	0	0.00351	-0.055542	0.041809	-0.002594	-0.053711	-0.038605	0.069733	0.004578	0.02655	0.003662	-0.20966	-0.002136	0.031891	0.12619	-0.37247	0.065002	-0.034943	-0.055237	-0.072784	0.019073	-0.10254	-0.007477	0.08728	-0.00824	-0.042725	-0.017242	0.003052	-0.011597
41.32	0.010834	0.019836	0.073547	-0.002441	-0.000916	-0.04303	0.026855	-0.000916	-0.050049	-0.038452	0.080414	0.012512	0.043793	-0.009155	-0.33402	0.002594	0.041046	0.086975	0.38834	0.092773	-0.029907	-0.034637	0.14832	-0.15961	-0.11887	-0.001831	0.4686	-0.009308	0.48584	0.013428	0.000153	-0.015717
41.321	0.004883	0.002594	0.072479	0.003662	0.002747	-0.039673	0.023346	-0.003967	-0.055389	-0.011597	0.1001	0.025177	0.019531	-0.080261	-0.34149	0.002594	0.034332	0.032043	0.46753	0.048676	-0.03479	-0.000305	0.14908	-0.14206	-0.15396	-0.004883	0.49057	-0.00412	0.34958	-0.021515	0.001984	-0.011597
41.322	0.018005	-0.007477	0.050201	0.00885	-0.001831	-0.055237	0.031281	0.001068	-0.060577	0.015106	-0.065155	-0.001526	-0.026093	-0.031281	0.16815	-0.003662	0.029144	-0.007782	0.96466	-0.067749	-0.031586	0.027313	0.50903	0.000153	-0.069427	-0.009155	0.28351	-0.004883	-0.059814	-0.036316	0.001984	-0.011902
41.323	0.00946	0.020447	0.030212	0.005951	0.018616	-0.017395	0.04715	0.003967	-0.050964	0.001678	-0.14511	-0.003357	-0.006409	-0.023041	0.13916	0.003204	0.021515	-0.046997	0.81345	-0.063171	-0.028839	0.029602	0.93079	-0.23712	-0.13214	0.003357	-0.55008	-0.003967	-0.19638	-0.037079	0.001373	-0.014191
41.324	0.00946	-0.002441	0.011444	0.001984	0.03891	0.001526	0.045929	0.005341	-0.057526	-0.011597	0.076447	-0.008392	-0.002747	-0.012207	0.28839	0.013733	0.019226	-0.10361	-0.26627	0.019836	-0.021362	0.042419	0.90546	-0.42496	0.011139	0.000305	-0.26184	-0.011597	-0.34454	-0.071564	0	-0.002899
41.325	0.005035	-0.020752	0.006561	0.015259	0.03418	0.01297	0.053558	0.001984	-0.062408	-0.034332	0.033569	-0.000458	0.024414	0.032196	0.11871	0.019226	0.018005	-0.20081	-0.82962	0.071716	-0.020599	0.02655	0.84701	-0.42694	0.28793	-0.011292	-0.079041	-0.00824	-0.093842	-0.034637	-0.001984	-0.005188
41.326	0.005646	-0.022583	0	0.000916	0.026855	0.014038	0.054016	0.002747	-0.084229	-0.006561	0.043488	0.040436	0.000763	0.023346	-0.11322	0.007782	0.017242	-0.23499	-0.93658	0.021362	-0.032349	0.010376	0.60181	-0.35599	0.43121	-0.006866	-0.22781	-0.010071	0.065613	-0.013428	0.001984	-0.005493
41.327	0.00885	-0.000763	-0.007324	0.00351	0.003204	-0.005951	0.047455	0.004272	-0.084991	-0.007782	0.010834	-0.031586	-0.015564	0.015106	-0.121	0.010986	0.058289	-0.17944	-0.40878	-0.006104	-0.01297	-0.005188	0.36529	-0.28946	0.48004	-0.000153	0.085754	-0.00473	0.16846	-0.067139	0.001221	-0.005646
41.328	-0.006409	-0.010529	-0.014496	0.004425	-0.023041	-0.003204	0.055847	0.005341	-0.090332	0.009613	-0.000763	0.007782	-0.018311	0.010376	-0.037231	0.006256	0.058899	-0.20706	0.14023	0.018921	-0.010071	-0.014648	-0.025787	-0.13886	0.48386	0.000916	0.47745	-0.005951	0.079498	-0.081787	-0.001373	-0.009766
41.329	-0.006866	-0.008545	-0.019379	0.006561	-0.014343	0.019073	0.039215	0.005341	-0.093689	-0.011292	-0.032196	-0.000458	-0.010223	-0.024109	0.018921	0.001526	0.028381	-0.20355	0.041656	0.093079	0.009155	-0.003357	-0.50888	0.063477	0.4715	-0.002747	0.19928	-0.003052	-0.12024	-0.13794	-0.003052	-0.011444
41.33	-0.006561	0.004578	-0.013885	0.002747	-0.021667	0.014343	0.048218	0.005493	-0.10696	-0.002747	0.008545	-0.016327	0.030212	-0.049744	-0.10407	0.005493	0.007477	-0.17517	-0.30106	0.17044	-0.021667	0.041351	-0.80612	0.33752	0.59235	0.006714	-0.28839	-0.005646	-0.065613	-0.17929	-0.001373	-0.01297
41.331	-0.011749	0.012207	-0.02655	0.012665	-0.01297	0.037842	0.04303	-0.003967	-0.1001	0.008545	0.079346	0.011444	0.00946	-0.093079	0.19821	0.002594	0.022888	-0.11398	-0.38803	0.103	-0.039825	0.081482	-0.96344	0.1648	0.65689	0.004272	0.01297	0.006409	-0.095215	-0.12466	0.00473	-0.010681
